<mxfile host="app.diagrams.net" modified="2021-01-03T22:32:41.950Z" agent="5.0 (Windows NT 10.0; Win64; x64) AppleWebKit/537.36 (KHTML, like Gecko) Chrome/87.0.4280.88 Safari/537.36" etag="pZTAjgfiC_tY1SV5OEWY" version="14.1.8" type="github">
  <diagram id="C5RBs43oDa-KdzZeNtuy" name="Page-1">
    <mxGraphModel dx="2307" dy="1963" grid="1" gridSize="10" guides="1" tooltips="1" connect="1" arrows="1" fold="1" page="1" pageScale="1" pageWidth="827" pageHeight="1169" math="0" shadow="0">
      <root>
        <mxCell id="WIyWlLk6GJQsqaUBKTNV-0" />
        <mxCell id="WIyWlLk6GJQsqaUBKTNV-1" parent="WIyWlLk6GJQsqaUBKTNV-0" />
        <mxCell id="WIyWlLk6GJQsqaUBKTNV-2" value="" style="rounded=0;html=1;jettySize=auto;orthogonalLoop=1;fontSize=11;endArrow=block;endFill=0;endSize=8;strokeWidth=1;shadow=0;labelBackgroundColor=none;edgeStyle=orthogonalEdgeStyle;exitX=0.5;exitY=1;exitDx=0;exitDy=0;" parent="WIyWlLk6GJQsqaUBKTNV-1" source="ILeSWgzzlu3fPb-ixhf4-10" edge="1">
          <mxGeometry relative="1" as="geometry">
            <mxPoint x="-120" y="-40" as="targetPoint" />
            <Array as="points">
              <mxPoint x="-120" y="-60" />
              <mxPoint x="-120" y="-60" />
            </Array>
          </mxGeometry>
        </mxCell>
        <mxCell id="ILeSWgzzlu3fPb-ixhf4-9" value="&lt;ul class=&quot;noneVisibleMarkers&quot; style=&quot;list-style-type: none ; color: rgb(41 , 41 , 41) ; font-family: &amp;#34;lora&amp;#34; , serif ; font-size: 14px ; background-color: rgb(255 , 255 , 255)&quot;&gt;&lt;li style=&quot;font-size: 14px&quot;&gt;Алгоритм:&lt;/li&gt;&lt;li style=&quot;font-size: 14px&quot;&gt;1. Вводим временную переменную temp для запоминания текущего значения элемента массива.&lt;/li&gt;&lt;li style=&quot;font-size: 14px&quot;&gt;2. Вводим цикл для перемещения пузырьков, равный по повторениям:&lt;ul class=&quot;noneVisibleMarkers&quot; style=&quot;list-style-type: none ; font-size: 14px&quot;&gt;&lt;li style=&quot;font-size: 14px&quot;&gt;2.1. Просматриваем в цикле все элементы массива. При просмотре просматриваются два элемента, поэтому повторений будет (Размер массива - 1). Элементы просматриваются с конца.&lt;ul class=&quot;noneVisibleMarkers&quot; style=&quot;list-style-type: none ; font-size: 14px&quot;&gt;&lt;li style=&quot;font-size: 14px&quot;&gt;2.1.1. Вычисляем индекс предыдущего элемента массива перед анализируемым.&lt;/li&gt;&lt;li style=&quot;font-size: 14px&quot;&gt;2.1.2. Если текущий элемент массива больше предыдущего, то меняем их местами.&lt;/li&gt;&lt;/ul&gt;&lt;/li&gt;&lt;/ul&gt;&lt;/li&gt;&lt;li style=&quot;font-size: 14px&quot;&gt;Конец.&lt;/li&gt;&lt;/ul&gt;&lt;p style=&quot;color: rgb(41 , 41 , 41) ; font-family: &amp;#34;lora&amp;#34; , serif ; font-size: 14px ; background-color: rgb(255 , 255 , 255)&quot;&gt;Входные данные:&amp;nbsp;&lt;span style=&quot;font-family: &amp;#34;jetbrains mono&amp;#34; , monospace ; color: rgb(0 , 51 , 179)&quot;&gt;int&lt;/span&gt;&lt;span style=&quot;color: rgb(8 , 8 , 8) ; font-family: &amp;#34;jetbrains mono&amp;#34; , monospace&quot;&gt;[] arr&lt;/span&gt;&amp;nbsp;— входной сортируемый массив.&lt;/p&gt;" style="text;html=1;align=left;verticalAlign=middle;resizable=0;points=[];autosize=1;fontSize=14;" vertex="1" parent="WIyWlLk6GJQsqaUBKTNV-1">
          <mxGeometry x="-315" y="-360" width="1200" height="180" as="geometry" />
        </mxCell>
        <mxCell id="ILeSWgzzlu3fPb-ixhf4-10" value="Начало" style="ellipse;whiteSpace=wrap;html=1;aspect=fixed;fontSize=12;align=center;" vertex="1" parent="WIyWlLk6GJQsqaUBKTNV-1">
          <mxGeometry x="-160" y="-180" width="80" height="80" as="geometry" />
        </mxCell>
        <mxCell id="ILeSWgzzlu3fPb-ixhf4-13" value="" style="edgeStyle=orthogonalEdgeStyle;rounded=0;orthogonalLoop=1;jettySize=auto;html=1;fontSize=14;" edge="1" parent="WIyWlLk6GJQsqaUBKTNV-1" source="ILeSWgzzlu3fPb-ixhf4-11">
          <mxGeometry relative="1" as="geometry">
            <mxPoint x="-100" y="-50" as="targetPoint" />
            <Array as="points">
              <mxPoint x="-120" y="-40" />
              <mxPoint x="-120" y="-40" />
            </Array>
          </mxGeometry>
        </mxCell>
        <mxCell id="ILeSWgzzlu3fPb-ixhf4-35" style="edgeStyle=orthogonalEdgeStyle;rounded=0;orthogonalLoop=1;jettySize=auto;html=1;exitX=1;exitY=0.5;exitDx=0;exitDy=0;fontSize=14;fontColor=#1A1A1A;" edge="1" parent="WIyWlLk6GJQsqaUBKTNV-1" source="ILeSWgzzlu3fPb-ixhf4-11" target="ILeSWgzzlu3fPb-ixhf4-36">
          <mxGeometry relative="1" as="geometry">
            <mxPoint x="-120" y="460" as="targetPoint" />
            <Array as="points">
              <mxPoint x="110" y="-10" />
              <mxPoint x="110" y="460" />
            </Array>
          </mxGeometry>
        </mxCell>
        <mxCell id="ILeSWgzzlu3fPb-ixhf4-11" value="i = arr.length - 1;&lt;br style=&quot;font-size: 12px&quot;&gt;i&amp;gt;0;&lt;br&gt;1--" style="rounded=0;whiteSpace=wrap;html=1;fontSize=12;align=center;" vertex="1" parent="WIyWlLk6GJQsqaUBKTNV-1">
          <mxGeometry x="-180" y="-40" width="120" height="60" as="geometry" />
        </mxCell>
        <mxCell id="ILeSWgzzlu3fPb-ixhf4-14" value="" style="endArrow=classic;html=1;fontSize=14;exitX=0.5;exitY=1;exitDx=0;exitDy=0;" edge="1" parent="WIyWlLk6GJQsqaUBKTNV-1" source="ILeSWgzzlu3fPb-ixhf4-11" target="ILeSWgzzlu3fPb-ixhf4-21">
          <mxGeometry width="50" height="50" relative="1" as="geometry">
            <mxPoint x="-70" y="80" as="sourcePoint" />
            <mxPoint x="-120" y="50" as="targetPoint" />
          </mxGeometry>
        </mxCell>
        <mxCell id="ILeSWgzzlu3fPb-ixhf4-20" value="Да" style="edgeStyle=orthogonalEdgeStyle;rounded=0;orthogonalLoop=1;jettySize=auto;html=1;fontSize=14;fontColor=#1A1A1A;exitX=0.5;exitY=1;exitDx=0;exitDy=0;" edge="1" parent="WIyWlLk6GJQsqaUBKTNV-1">
          <mxGeometry relative="1" as="geometry">
            <mxPoint x="-120" y="200" as="sourcePoint" />
            <mxPoint x="-120" y="220" as="targetPoint" />
            <Array as="points" />
          </mxGeometry>
        </mxCell>
        <mxCell id="ILeSWgzzlu3fPb-ixhf4-28" value="" style="edgeStyle=orthogonalEdgeStyle;rounded=0;orthogonalLoop=1;jettySize=auto;html=1;fontSize=14;fontColor=#1A1A1A;" edge="1" parent="WIyWlLk6GJQsqaUBKTNV-1" source="ILeSWgzzlu3fPb-ixhf4-21">
          <mxGeometry relative="1" as="geometry">
            <mxPoint x="-120" y="140" as="targetPoint" />
          </mxGeometry>
        </mxCell>
        <mxCell id="ILeSWgzzlu3fPb-ixhf4-34" style="edgeStyle=orthogonalEdgeStyle;rounded=0;orthogonalLoop=1;jettySize=auto;html=1;fontSize=14;fontColor=#1A1A1A;entryX=0;entryY=0.5;entryDx=0;entryDy=0;" edge="1" parent="WIyWlLk6GJQsqaUBKTNV-1" source="ILeSWgzzlu3fPb-ixhf4-21" target="ILeSWgzzlu3fPb-ixhf4-11">
          <mxGeometry relative="1" as="geometry">
            <mxPoint x="-290" y="-20" as="targetPoint" />
            <Array as="points">
              <mxPoint x="10" y="80" />
              <mxPoint x="10" y="400" />
              <mxPoint x="-310" y="400" />
              <mxPoint x="-310" y="-10" />
            </Array>
          </mxGeometry>
        </mxCell>
        <mxCell id="ILeSWgzzlu3fPb-ixhf4-21" value="j = 0; j&amp;lt;i;1++" style="rounded=0;whiteSpace=wrap;html=1;" vertex="1" parent="WIyWlLk6GJQsqaUBKTNV-1">
          <mxGeometry x="-180" y="50" width="120" height="60" as="geometry" />
        </mxCell>
        <mxCell id="ILeSWgzzlu3fPb-ixhf4-31" value="Да" style="edgeStyle=orthogonalEdgeStyle;rounded=0;orthogonalLoop=1;jettySize=auto;html=1;fontSize=12;fontColor=#1A1A1A;" edge="1" parent="WIyWlLk6GJQsqaUBKTNV-1" source="ILeSWgzzlu3fPb-ixhf4-29" target="ILeSWgzzlu3fPb-ixhf4-30">
          <mxGeometry relative="1" as="geometry" />
        </mxCell>
        <mxCell id="ILeSWgzzlu3fPb-ixhf4-29" value="arr[j] &amp;gt; arr[j + 1]" style="rhombus;whiteSpace=wrap;html=1;labelBackgroundColor=#FFFFFF;fontSize=12;fontColor=#1A1A1A;align=center;" vertex="1" parent="WIyWlLk6GJQsqaUBKTNV-1">
          <mxGeometry x="-215" y="140" width="190" height="80" as="geometry" />
        </mxCell>
        <mxCell id="ILeSWgzzlu3fPb-ixhf4-33" style="edgeStyle=orthogonalEdgeStyle;rounded=0;orthogonalLoop=1;jettySize=auto;html=1;fontSize=14;fontColor=#1A1A1A;" edge="1" parent="WIyWlLk6GJQsqaUBKTNV-1" source="ILeSWgzzlu3fPb-ixhf4-30">
          <mxGeometry relative="1" as="geometry">
            <mxPoint x="-210" y="80" as="targetPoint" />
            <Array as="points">
              <mxPoint x="-280" y="360" />
            </Array>
          </mxGeometry>
        </mxCell>
        <mxCell id="ILeSWgzzlu3fPb-ixhf4-30" value="temp = arr[j];&lt;br style=&quot;font-size: 12px;&quot;&gt;arr[j] = arr[j+1];&lt;br style=&quot;font-size: 12px;&quot;&gt;arr[j+1]=temp;" style="whiteSpace=wrap;html=1;fontSize=12;fontColor=#1A1A1A;labelBackgroundColor=#FFFFFF;" vertex="1" parent="WIyWlLk6GJQsqaUBKTNV-1">
          <mxGeometry x="-180" y="310" width="120" height="60" as="geometry" />
        </mxCell>
        <mxCell id="ILeSWgzzlu3fPb-ixhf4-32" value="Нет" style="endArrow=classic;html=1;fontSize=12;fontColor=#1A1A1A;exitX=0;exitY=0.5;exitDx=0;exitDy=0;entryX=0;entryY=0.5;entryDx=0;entryDy=0;" edge="1" parent="WIyWlLk6GJQsqaUBKTNV-1" source="ILeSWgzzlu3fPb-ixhf4-29" target="ILeSWgzzlu3fPb-ixhf4-21">
          <mxGeometry width="50" height="50" relative="1" as="geometry">
            <mxPoint x="-170" y="50" as="sourcePoint" />
            <mxPoint x="-215" y="80" as="targetPoint" />
            <Array as="points">
              <mxPoint x="-215" y="130" />
              <mxPoint x="-215" y="80" />
            </Array>
          </mxGeometry>
        </mxCell>
        <mxCell id="ILeSWgzzlu3fPb-ixhf4-36" value="Конец" style="ellipse;whiteSpace=wrap;html=1;aspect=fixed;" vertex="1" parent="WIyWlLk6GJQsqaUBKTNV-1">
          <mxGeometry x="-160" y="420" width="80" height="80" as="geometry" />
        </mxCell>
      </root>
    </mxGraphModel>
  </diagram>
</mxfile>
